<svg xmlns="http://www.w3.org/2000/svg" width="225.568" height="225.568" viewBox="0 0 225.568 225.568">
  <g id="Group_4" data-name="Group 4" transform="translate(-390.216 13.776)">
    <g id="Group_2" data-name="Group 2">
      <circle id="Ellipse_1" data-name="Ellipse 1" cx="79.75" cy="79.75" r="79.75" transform="translate(390.216 99.008) rotate(-45)" fill="red"/>
      <circle id="Ellipse_2" data-name="Ellipse 2" cx="73.89" cy="73.89" r="73.89" transform="translate(429.11 25.11)" fill="red"/>
    </g>
    <g id="Group_3" data-name="Group 3">
      <path id="Path_6" data-name="Path 6" d="M465.51,90.98a.884.884,0,0,0,.13-.3c.15-1.34.26-2.67.44-4.01a48.631,48.631,0,0,1,1.56-7.14,62.407,62.407,0,0,1,3.56-9.25,73.888,73.888,0,0,1,8.59-13.8c1.18-1.5,2.44-2.94,3.68-4.39.38-.45.82-.86,1.23-1.28.06-.06.14-.11.24-.19a2.195,2.195,0,0,1,.04.31c-.01,1.48-.02,2.95-.04,4.43,0,.55-.03,1.11-.04,1.66-.02,1.4-.02,2.8-.04,4.19-.01.96-.03,1.93-.04,2.89-.01,1.02-.03,2.03-.04,3.05-.01.98-.03,1.95-.04,2.93-.01,1-.03,2-.04,3.01-.01.99-.03,1.98-.04,2.97,0,.29-.03.58-.03.87,0,.09.02.18.03.32.17-.08.31-.13.45-.2a51.994,51.994,0,0,1,15.55-4.98,48.612,48.612,0,0,1,5.11-.53c1.41-.06,2.82-.08,4.23-.04a39.036,39.036,0,0,1,14.39,3.29,27.326,27.326,0,0,1,7.34,4.6,23.862,23.862,0,0,1,5.43,6.88A28.584,28.584,0,0,1,540,94.91a40.562,40.562,0,0,1,.47,4.91,49.87,49.87,0,0,1-.3,6.91,1.689,1.689,0,0,1-.36.9,26.779,26.779,0,0,1-7.15,6.52,39.864,39.864,0,0,1-10.1,4.53,48.176,48.176,0,0,1-6.5,1.49,41.086,41.086,0,0,1-4.95.5,32.746,32.746,0,0,1-4.54-.09,12.945,12.945,0,0,1-3.43-.72,7.937,7.937,0,0,1-1.3-.66,2.607,2.607,0,0,1-1.13-3.26,7.372,7.372,0,0,1,1.5-2.49,15.235,15.235,0,0,1,2.59-2.42,41.664,41.664,0,0,0,3.78-3.24,32.162,32.162,0,0,0,4.03-4.61,16.11,16.11,0,0,0,2.26-4.33,8.458,8.458,0,0,0,.27-4.83,8.338,8.338,0,0,0-2.12-3.7,12.9,12.9,0,0,0-7.58-3.92,17,17,0,0,0-4.45-.08,32.038,32.038,0,0,0-8.96,2.45,65.486,65.486,0,0,0-10.39,5.61,110.367,110.367,0,0,0-11.72,8.81c-.87.75-1.72,1.52-2.58,2.28l-.2.16c-.12-.46-.24-.89-.35-1.32a46.088,46.088,0,0,1-1.02-5.96c-.06-.56-.09-1.13-.14-1.69,0-.11.04-.25-.13-.28V91Z" fill="#fff"/>
      <path id="Path_7" data-name="Path 7" d="M502.86,137.38c-.12-.02-.23-.05-.35-.06-1.6-.09-3.21-.16-4.81-.28s-3.2-.27-4.79-.48a21.012,21.012,0,0,1-6.04-1.79,25.227,25.227,0,0,1-5.24-3.29,30.639,30.639,0,0,1-5.66-6.1,50.658,50.658,0,0,1-5.67-10.43c-.21-.51-.41-1.03-.62-1.54-.05-.13-.1-.27-.16-.43.12-.08.22-.16.32-.23,2.95-1.99,5.98-3.85,9.07-5.63,3.13-1.8,6.28-3.55,9.53-5.13a29.735,29.735,0,0,1,5.65-2.22,12.644,12.644,0,0,1,1.94-.31,3.144,3.144,0,0,1,1.01.12,1.231,1.231,0,0,1,.95,1.25,4.053,4.053,0,0,1-.49,2.02c-.43.85-.91,1.66-1.35,2.5a43.614,43.614,0,0,0-3.98,10.29,19.314,19.314,0,0,0-.55,4.54,10.41,10.41,0,0,0,.84,4.23,7.43,7.43,0,0,0,2.96,3.36,11.65,11.65,0,0,0,3.98,1.46,20.361,20.361,0,0,0,3.89.32c1.07,0,2.13.03,3.2,0,1.18-.04,2.37-.13,3.55-.22a60.437,60.437,0,0,0,8.66-1.35,63.621,63.621,0,0,0,12.66-4.3,45.46,45.46,0,0,0,5.15-2.76c.06-.04.14-.07.28-.14-.04.3-.07.54-.11.78a12.465,12.465,0,0,1-1.85,5,16.64,16.64,0,0,1-4.21,4.52,26.507,26.507,0,0,1-7.01,3.67,42.654,42.654,0,0,1-9.54,2.14c-1.43.16-2.86.27-4.29.39-.42.04-.84.03-1.26.05a2.629,2.629,0,0,0-.39.06h-5.3Z" fill="#fff"/>
    </g>
  </g>
</svg>
